# File created by Blade
# Date/Time:  Tue Sep 30 19:08:11 2014
#---------------------------------------------------------
:version 1.10
:name HOM
:units
  mass 1.0
  length 1.000000
  angle deg
:documentation
     Acclaim Skeleton File
:root
   axis xyz
   order TX TY TZ RX RY RZ
   position 0.000000 0.000000 0.000000
   orientation 0 0 0
:bonedata
   begin
      id 1
      name Spine_dum
      direction 0.000000 1.000000 0.000000
      length 7.508948
      axis 0.0 0.0 0.0 xyz
   end
   begin
      id 2
      name LeftUpLeg_dum
      direction 1.000000 0.000000 0.000000
      length 3.000560
      axis 0.0 0.0 0.0 xyz
   end
   begin
      id 3
      name RightUpLeg_dum
      direction -1.000000 0.000000 0.000000
      length 3.000560
      axis 0.0 0.0 0.0 xyz
   end
   begin
      id 4
      name Spine
      direction 0.000000 1.000000 0.000000
      length 0.000000
      axis 0.0 0.0 0.0 xyz
      dof rx ry rz
   end
   begin
      id 5
      name Spine_dum1
      direction 0.000000 1.000000 0.000000
      length 13.861154
      axis 0.0 0.0 0.0 xyz
   end
   begin
      id 6
      name Spine_dum2
      direction 0.000000 1.000000 0.000000
      length 8.204781
      axis 0.0 0.0 0.0 xyz
   end
   begin
      id 7
      name Spine_dum3
      direction 0.000000 1.000000 0.000000
      length 8.204781
      axis 0.0 0.0 0.0 xyz
   end
   begin
      id 8
      name Head
      direction 0.000000 1.000000 0.000000
      length 4.527550
      axis 0.0 0.0 0.0 xyz
      dof rx ry rz
   end
   begin
      id 9
      name LeftShoulder
      direction 1.000000 0.000000 0.000000
      length 6.635956
      axis 0.0 0.0 -90.0 xyz
      dof rx ry rz
   end
   begin
      id 10
      name LeftArm
      direction 1.000000 0.000000 0.000000
      length 10.274218
      axis 0.0 0.0 -90.0 xyz
      dof rx ry rz
   end
   begin
      id 11
      name LeftForeArm
      direction 1.000000 0.000000 0.000000
      length 8.522147
      axis 0.0 0.0 -90.0 xyz
      dof ry rz rx
   end
   begin
      id 12
      name LeftHand
      direction 0.000000 0.000000 0.000000
      length 0.000000
      axis 0.0 0.0 -90.0 xyz
      dof rx ry rz
   end
   begin
      id 13
      name LeftHand_dum1
      direction 0.000000 0.000000 0.000000
      length 0.000000
      axis 0.0 0.0 -90.0 xyz
   end
   begin
      id 14
      name LeftHand_dum2
      direction 1.000000 0.000000 0.000000
      length 3.937000
      axis 0.0 0.0 -90.0 xyz
   end
   begin
      id 15
      name LeftHandThumb1
      direction 0.000000 0.000000 1.000000
      length 3.937000
      axis 0.0 0.0 -90.0 xyz
      dof rx rz ry
   end
   begin
      id 16
      name RightShoulder
      direction -1.000000 0.000000 0.000000
      length 6.635956
      axis 0.0 0.0 90.0 xyz
      dof rx ry rz
   end
   begin
      id 17
      name RightArm
      direction -1.000000 0.000000 0.000000
      length 10.274218
      axis 0.0 0.0 90.0 xyz
      dof rx ry rz
   end
   begin
      id 18
      name RightForeArm
      direction -1.000000 0.000000 0.000000
      length 8.522147
      axis 0.0 0.0 90.0 xyz
      dof ry rz rx
   end
   begin
      id 19
      name RightHand
      direction 0.000000 0.000000 0.000000
      length 0.000000
      axis 0.0 0.0 90.0 xyz
      dof rx ry rz
   end
   begin
      id 20
      name RightHand_dum1
      direction 0.000000 0.000000 0.000000
      length 0.000000
      axis 0.0 0.0 90.0 xyz
   end
   begin
      id 21
      name RightHand_dum2
      direction -1.000000 0.000000 0.000000
      length 3.937000
      axis 0.0 0.0 90.0 xyz
   end
   begin
      id 22
      name RightHandThumb1
      direction 0.000000 0.000000 1.000000
      length 3.937000
      axis 0.0 0.0 90.0 xyz
      dof rx rz ry
   end
   begin
      id 23
      name LeftUpLeg
      direction 0.000000 -1.000000 0.000000
      length 16.490845
      axis 0.0 0.0 0.0 xyz
      dof rx ry rz
   end
   begin
      id 24
      name LeftLeg
      direction 0.000000 -1.000000 0.000000
      length 14.556576
      axis 0.0 0.0 0.0 xyz
      dof rx ry rz
   end
   begin
      id 25
      name LeftFoot
      direction 0.000000 -0.258819 0.965926
      length 4.831116
      axis 15.0 0.0 0.0 xyz
      dof rx ry rz
   end
   begin
      id 26
      name LeftToeBase
      direction 0.000000 0.000000 1.000000
      length 2.952750
      axis 0.0 0.0 0.0 xyz
      dof rx ry rz
   end
   begin
      id 27
      name RightUpLeg
      direction 0.000000 -1.000000 0.000000
      length 16.490845
      axis 0.0 0.0 0.0 xyz
      dof rx ry rz
   end
   begin
      id 28
      name RightLeg
      direction 0.000000 -1.000000 0.000000
      length 14.556576
      axis 0.0 0.0 0.0 xyz
      dof rx ry rz
   end
   begin
      id 29
      name RightFoot
      direction 0.000000 -0.258819 0.965926
      length 4.831116
      axis 15.0 0.0 0.0 xyz
      dof rx ry rz
   end
   begin
      id 30
      name RightToeBase
      direction 0.000000 0.000000 1.000000
      length 2.952750
      axis 0.0 0.0 0.0 xyz
      dof rx ry rz
   end
:hierarchy
   begin
      root Spine_dum LeftUpLeg_dum RightUpLeg_dum
      Spine_dum Spine
      LeftUpLeg_dum LeftUpLeg
      RightUpLeg_dum RightUpLeg
      Spine Spine_dum1 Spine_dum2 Spine_dum3
      Spine_dum1 Head
      Spine_dum2 LeftShoulder
      Spine_dum3 RightShoulder
      LeftShoulder LeftArm
      LeftArm LeftForeArm
      LeftForeArm LeftHand
      LeftHand LeftHand_dum1 LeftHand_dum2
      LeftHand_dum1 LeftHandThumb1
      RightShoulder RightArm
      RightArm RightForeArm
      RightForeArm RightHand
      RightHand RightHand_dum1 RightHand_dum2
      RightHand_dum1 RightHandThumb1
      LeftUpLeg LeftLeg
      LeftLeg LeftFoot
      LeftFoot LeftToeBase
      RightUpLeg RightLeg
      RightLeg RightFoot
      RightFoot RightToeBase
   end

# File created by Blade
# Date/Time:  Thu Sep 25 21:01:51 2014
# Frame Rate: 120.000 fps
#------------------------------------------------------
:FULLY-SPECIFIED
:DEGREES
134
root -3.938577 32.843666 -1.423672 14.349012 -0.103216 -0.719978
Spine -13.733704 6.310653 -0.027337
Head -0.633755 -4.692249 7.841721
LeftShoulder -12.508599 22.763626 12.545248
LeftArm 20.977582 13.628366 -67.329169
LeftForeArm 6.358263 0.000000 17.821048
LeftHand -22.944405 0.000000 -8.278833
LeftHandThumb1 -26.253704 0.000000 33.147579
RightShoulder -20.572042 7.178632 -23.278313
RightArm -10.284168 -14.524029 73.901843
RightForeArm -22.106112 -0.000000 14.899824
RightHand -6.546777 0.000000 13.031313
RightHandThumb1 -24.326973 -0.000000 -32.862282
LeftUpLeg -9.709351 4.463130 0.534770
LeftLeg 0.193427 -0.000000 -0.000000
LeftFoot -11.505268 5.898198 -12.778620
LeftToeBase 10.861558 -0.000000 -0.000000
RightUpLeg -11.160701 -2.680858 0.258593
RightLeg 3.759715 -0.000000 -0.000000
RightFoot -11.284641 -5.636737 4.039448
RightToeBase 4.612440 -0.000000 -0.000000
135
root -3.930723 32.843363 -1.428953 14.358872 -0.072365 -0.703614
Spine -13.716602 6.360877 -0.094173
Head -0.434476 -4.773418 7.836999
LeftShoulder -12.487241 22.672253 12.488709
LeftArm 20.784616 14.447977 -68.184025
LeftForeArm 6.641340 -0.000000 18.000650
LeftHand -22.961279 0.000000 -8.474980
LeftHandThumb1 -26.253704 0.000000 33.147579
RightShoulder -20.640537 7.104991 -22.988076
RightArm -10.434838 -15.044598 74.918690
RightForeArm -22.125782 0.000000 14.855991
RightHand -6.358596 -0.000000 13.470898
RightHandThumb1 -24.326973 -0.000000 -32.862282
LeftUpLeg -9.732288 4.429207 0.507596
LeftLeg 0.191263 -0.000000 -0.000000
LeftFoot -11.490445 5.920699 -12.738605
LeftToeBase 10.837857 -0.000000 -0.000000
RightUpLeg -11.183019 -2.696645 0.234484
RightLeg 3.771234 -0.000000 -0.000000
RightFoot -11.258937 -5.678796 4.005270
RightToeBase 4.470232 -0.000000 -0.000000
136
root -3.923427 32.843781 -1.434038 14.372156 -0.024417 -0.691410
Spine -13.701165 6.385411 -0.149149
Head -0.244770 -4.807662 7.854700
LeftShoulder -12.489690 22.639699 12.407517
LeftArm 20.653786 15.288455 -68.952881
LeftForeArm 6.771769 0.000000 18.174660
LeftHand -22.879671 0.000000 -8.444498
LeftHandThumb1 -26.253704 0.000000 33.147579
RightShoulder -20.713741 7.046169 -22.733646
RightArm -10.568571 -15.741620 75.959037
RightForeArm -21.906439 -0.000000 14.787939
RightHand -6.324095 -0.000000 13.768984
RightHandThumb1 -24.326973 -0.000000 -32.862282
LeftUpLeg -9.766762 4.364297 0.494138
LeftLeg 0.204087 -0.000000 -0.000000
LeftFoot -11.490718 5.942111 -12.734554
LeftToeBase 10.852334 -0.000000 -0.000000
RightUpLeg -11.205751 -2.719753 0.219085
RightLeg 3.778461 -0.000000 -0.000000
RightFoot -11.264691 -5.723321 3.977022
RightToeBase 4.523287 -0.000000 -0.000000
137
root -3.919461 32.844262 -1.436109 14.373953 -0.013662 -0.697887
Spine -13.683407 6.433014 -0.184704
Head -0.053711 -4.845652 7.831174
LeftShoulder -12.516857 22.623927 12.298937
LeftArm 20.495068 15.987837 -69.704604
LeftForeArm 7.016007 -0.000000 18.399874
LeftHand -22.818023 -0.000000 -8.661081
LeftHandThumb1 -26.253704 0.000000 33.147579
RightShoulder -20.793441 7.107491 -22.526835
RightArm -10.829126 -16.378296 76.997310
RightForeArm -21.721825 -0.000000 14.725575
RightHand -6.240684 -0.000000 13.967967
RightHandThumb1 -24.326973 -0.000000 -32.862282
LeftUpLeg -9.772726 4.363876 0.496041
LeftLeg 0.201177 -0.000000 -0.000000
LeftFoot -11.473289 5.916260 -12.757709
LeftToeBase 10.815688 -0.000000 -0.000000
RightUpLeg -11.214795 -2.698821 0.213641
RightLeg 3.788935 -0.000000 -0.000000
RightFoot -11.261576 -5.728038 4.013468
RightToeBase 4.509736 -0.000000 -0.000000
138
root -3.915053 32.844661 -1.441359 14.398320 0.004481 -0.707879
Spine -13.686305 6.461910 -0.205615
Head 0.134786 -4.876446 7.757736
LeftShoulder -12.564144 22.626500 12.175456
LeftArm 20.357384 16.942590 -70.299040
LeftForeArm 6.996506 -0.000000 18.662545
LeftHand -22.770413 -0.000000 -8.481997
LeftHandThumb1 -26.253704 0.000000 33.147579
RightShoulder -20.872488 7.080028 -22.350624
RightArm -10.983681 -16.946610 78.050286
RightForeArm -21.660109 -0.000000 14.626555
RightHand -6.164164 -0.000000 14.246771
RightHandThumb1 -24.326973 -0.000000 -32.862282
LeftUpLeg -9.813423 4.331301 0.502177
LeftLeg 0.214267 -0.000000 -0.000000
LeftFoot -11.477939 5.932870 -12.727895
LeftToeBase 10.859124 -0.000000 -0.000000
RightUpLeg -11.257449 -2.716576 0.217986
RightLeg 3.802493 -0.000000 -0.000000
RightFoot -11.282053 -5.688766 4.126348
RightToeBase 4.586616 -0.000000 -0.000000
139
root -3.902355 32.844715 -1.441904 14.385298 0.011658 -0.706720
Spine -13.653576 6.490497 -0.196219
Head 0.333867 -4.869437 7.620938
LeftShoulder -12.620654 22.582493 12.013282
LeftArm 20.139435 17.808178 -70.919292
LeftForeArm 7.026492 -0.000000 18.940020
LeftHand -22.750967 -0.000000 -8.222079
LeftHandThumb1 -26.253704 0.000000 33.147579
RightShoulder -20.904643 7.079762 -22.211568
RightArm -11.191714 -17.319560 79.070952
RightForeArm -21.475328 -0.000000 14.567386
RightHand -6.176716 -0.000000 13.929144
RightHandThumb1 -24.326973 -0.000000 -32.862282
LeftUpLeg -9.790823 4.310077 0.478490
LeftLeg 0.187089 -0.000000 -0.000000
LeftFoot -11.479144 5.969378 -12.693521
LeftToeBase 10.895043 -0.000000 -0.000000
RightUpLeg -11.251641 -2.745581 0.196643
RightLeg 3.815499 -0.000000 -0.000000
RightFoot -11.284936 -5.655971 4.170906
RightToeBase 4.584937 -0.000000 -0.000000
140
root -3.894361 32.845576 -1.445883 14.392869 0.023679 -0.720671
Spine -13.631130 6.509115 -0.201882
Head 0.497089 -4.892623 7.554213
LeftShoulder -12.705006 22.578911 11.869870
LeftArm 19.973849 18.424695 -71.624737
LeftForeArm 7.193231 -0.000000 19.124182
LeftHand -22.733751 -0.000000 -8.005584
LeftHandThumb1 -26.253704 0.000000 33.147579
RightShoulder -20.936841 7.137451 -22.108959
RightArm -11.535159 -17.937810 80.181766
RightForeArm -21.124229 -0.000000 14.647283
RightHand -6.209363 -0.000000 13.885665
RightHandThumb1 -24.326973 -0.000000 -32.862282
LeftUpLeg -9.805886 4.304932 0.479915
LeftLeg 0.183951 -0.000000 -0.000000
LeftFoot -11.457605 5.963041 -12.656778
LeftToeBase 10.823871 -0.000000 -0.000000
RightUpLeg -11.270529 -2.733440 0.195803
RightLeg 3.832747 -0.000000 -0.000000
RightFoot -11.240524 -5.693159 4.091162
RightToeBase 4.496354 -0.000000 -0.000000
141
root -3.883946 32.845090 -1.450493 14.387070 0.038762 -0.718270
Spine -13.590700 6.546545 -0.231923
Head 0.673572 -4.936248 7.520056
LeftShoulder -12.735675 22.539458 11.763713
LeftArm 19.789279 19.050069 -72.322083
LeftForeArm 7.238298 0.000000 19.293770
LeftHand -22.851204 -0.000000 -7.832172
LeftHandThumb1 -26.253704 0.000000 33.147579
RightShoulder -21.015227 7.237670 -22.029103
RightArm -11.884057 -18.287671 81.255815
RightForeArm -20.987363 -0.000000 14.690739
RightHand -6.135769 -0.000000 13.795885
RightHandThumb1 -24.326973 -0.000000 -32.862282
LeftUpLeg -9.811943 4.287085 0.461153
LeftLeg 0.187658 -0.000000 -0.000000
LeftFoot -11.456694 5.963794 -12.623878
LeftToeBase 10.788690 -0.000000 -0.000000
RightUpLeg -11.280661 -2.753913 0.181023
RightLeg 3.845536 -0.000000 -0.000000
RightFoot -11.289880 -5.653135 4.226406
RightToeBase 4.685244 -0.000000 -0.000000
142
root -3.874368 32.845681 -1.456761 14.404554 0.055769 -0.740060
Spine -13.581046 6.579840 -0.223665
Head 0.883815 -4.949365 7.457673
LeftShoulder -12.780477 22.480285 11.638001
LeftArm 19.539918 19.644613 -73.019958
LeftForeArm 7.365984 0.000000 19.497933
LeftHand -22.965481 -0.000000 -7.700273
LeftHandThumb1 -26.253704 0.000000 33.147579
RightShoulder -21.029829 7.301223 -21.951391
RightArm -12.253853 -18.521286 82.302848
RightForeArm -20.911859 0.000000 14.848677
RightHand -6.214677 0.000000 13.610224
RightHandThumb1 -24.326973 -0.000000 -32.862282
LeftUpLeg -9.844598 4.284286 0.463723
LeftLeg 0.192136 -0.000000 -0.000000
LeftFoot -11.462265 5.968112 -12.627307
LeftToeBase 10.803510 -0.000000 -0.000000
RightUpLeg -11.347344 -2.790664 0.198997
RightLeg 3.928209 -0.000000 -0.000000
RightFoot -11.241447 -5.685962 4.084686
RightToeBase 4.506579 -0.000000 -0.000000
143
root -3.863370 32.845624 -1.461837 14.413828 0.061841 -0.740733
Spine -13.567208 6.628786 -0.264585
Head 1.089718 -4.993240 7.466481
LeftShoulder -12.792923 22.403124 11.575640
LeftArm 19.245741 20.271150 -73.706847
LeftForeArm 7.461066 0.000000 19.722594
LeftHand -22.959970 -0.000000 -7.350361
LeftHandThumb1 -26.253704 0.000000 33.147579
RightShoulder -21.048712 7.280814 -21.879109
RightArm -12.560530 -18.878308 83.378512
RightForeArm -20.812216 -0.000000 15.037408
RightHand -6.112699 -0.000000 13.411055
RightHandThumb1 -24.326973 -0.000000 -32.862282
LeftUpLeg -9.863174 4.273613 0.444363
LeftLeg 0.189407 -0.000000 -0.000000
LeftFoot -11.469600 5.976537 -12.594394
LeftToeBase 10.858897 -0.000000 -0.000000
RightUpLeg -11.373926 -2.782676 0.181174
RightLeg 3.946983 -0.000000 -0.000000
RightFoot -11.239131 -5.713770 4.083459
RightToeBase 4.497712 -0.000000 -0.000000
144
root -3.850947 32.845072 -1.465781 14.407998 0.054336 -0.738544
Spine -13.534442 6.684972 -0.306053
Head 1.303918 -5.035893 7.456134
LeftShoulder -12.833624 22.340578 11.508698
LeftArm 18.986275 20.863678 -74.379123
LeftForeArm 7.640105 0.000000 19.939026
LeftHand -22.971199 -0.000000 -7.165908
LeftHandThumb1 -26.253704 0.000000 33.147579
RightShoulder -21.054258 7.299384 -21.807288
RightArm -12.917910 -19.335052 84.441234
RightForeArm -20.749808 -0.000000 15.313527
RightHand -6.164063 -0.000000 13.441797
RightHandThumb1 -24.326973 -0.000000 -32.862282
LeftUpLeg -9.864416 4.261054 0.416288
LeftLeg 0.191198 -0.000000 -0.000000
LeftFoot -11.470729 6.016005 -12.536695
LeftToeBase 10.805665 -0.000000 -0.000000
RightUpLeg -11.384329 -2.792197 0.156744
RightLeg 3.966374 -0.000000 -0.000000
RightFoot -11.247140 -5.697205 4.084308
RightToeBase 4.514297 -0.000000 -0.000000
145
root -3.840351 32.844763 -1.470142 14.398054 0.061167 -0.740218
Spine -13.495603 6.741570 -0.354834
Head 1.522526 -5.127217 7.471800
LeftShoulder -12.898856 22.334862 11.433483
LeftArm 18.806451 21.297424 -75.026243
LeftForeArm 7.891697 0.000000 20.125553
LeftHand -22.966746 0.000000 -7.156043
LeftHandThumb1 -26.253704 0.000000 33.147579
RightShoulder -21.071881 7.274202 -21.727805
RightArm -13.219484 -19.848377 85.492413
RightForeArm -20.808732 -0.000000 15.598430
RightHand -6.137278 -0.000000 13.408549
RightHandThumb1 -24.326973 -0.000000 -32.862282
LeftUpLeg -9.865024 4.192005 0.409875
LeftLeg 0.198224 -0.000000 -0.000000
LeftFoot -11.484563 6.077392 -12.506398
LeftToeBase 10.837224 -0.000000 -0.000000
RightUpLeg -11.384102 -2.798769 0.140249
RightLeg 3.974770 -0.000000 -0.000000
RightFoot -11.271108 -5.668652 4.175837
RightToeBase 4.583958 -0.000000 -0.000000
146
root -3.827465 32.845387 -1.477410 14.414707 0.062468 -0.736197
Spine -13.485278 6.816782 -0.417545
Head 1.727489 -5.245130 7.502590
LeftShoulder -12.945937 22.324533 11.367956
LeftArm 18.608162 21.761543 -75.619441
LeftForeArm 8.100231 -0.000000 20.329697
LeftHand -22.895816 -0.000000 -7.155837
LeftHandThumb1 -26.253704 0.000000 33.147579
RightShoulder -21.069421 7.284843 -21.673055
RightArm -13.612073 -20.461226 86.562428
RightForeArm -20.874286 -0.000000 15.944350
RightHand -5.999230 -0.000000 13.540608
RightHandThumb1 -24.326973 -0.000000 -32.862282
LeftUpLeg -9.894667 4.161370 0.383456
LeftLeg 0.195217 -0.000000 -0.000000
LeftFoot -11.469630 6.121883 -12.488853
LeftToeBase 10.776343 -0.000000 -0.000000
RightUpLeg -11.435402 -2.836559 0.123942
RightLeg 4.016921 -0.000000 -0.000000
RightFoot -11.252738 -5.688914 4.080067
RightToeBase 4.538066 -0.000000 -0.000000
